<svg id="footprint" viewBox="0 0 24 24" fill="none" xmlns="http://www.w3.org/2000/svg"><path d="M17.4262 3.5113C17.3822 3.3471 17.4009 3.19457 17.4822 3.05372C17.5635 2.91288 17.6863 2.82046 17.8505 2.77646C18.0147 2.73246 18.1672 2.75112 18.3081 2.83243C18.4489 2.91375 18.5413 3.03651 18.5853 3.20072C18.6293 3.36493 18.6107 3.51746 18.5294 3.6583C18.448 3.79915 18.3253 3.89157 18.1611 3.93557C17.9969 3.97957 17.8443 3.96091 17.7035 3.87959C17.5626 3.79827 17.4702 3.67551 17.4262 3.5113ZM10.0113 8.29338C9.84043 7.65587 9.92119 7.0493 10.2535 6.47367C10.5859 5.89804 11.0708 5.52482 11.7083 5.354L15.1856 4.42225C16.1516 4.16343 17.0632 4.28151 17.9205 4.77648C18.7778 5.27146 19.3359 6.00191 19.5947 6.96783L19.8781 8.02552C20.0567 8.69201 19.9848 9.32208 19.6625 9.91574C19.3402 10.5094 18.8506 10.8942 18.1938 11.0702C17.7494 11.1893 17.3096 11.1803 16.8743 11.0433C16.439 10.9063 16.0705 10.6608 15.7686 10.3069C15.5409 10.0366 15.2606 9.85031 14.9278 9.74796C14.5949 9.64562 14.2595 9.63974 13.9214 9.73033L12.9506 9.99044C12.3035 10.1638 11.6951 10.0862 11.1256 9.75735C10.5561 9.42854 10.1847 8.94055 10.0113 8.29338ZM18.9736 4.64961C18.9296 4.4854 18.9482 4.33288 19.0295 4.19203C19.1109 4.05118 19.2336 3.95876 19.3978 3.91476L19.6876 3.83712C19.8518 3.79312 20.0043 3.81178 20.1452 3.89309C20.286 3.97441 20.3784 4.09717 20.4224 4.26138C20.4664 4.42559 20.4478 4.57812 20.3665 4.71896C20.2852 4.85981 20.1624 4.95223 19.9982 4.99623L19.7084 5.07387C19.5442 5.11787 19.3917 5.09921 19.2508 5.0179C19.11 4.93658 19.0176 4.81382 18.9736 4.64961ZM20.019 6.23299C19.975 6.06878 19.9936 5.91625 20.075 5.77541C20.1563 5.63456 20.279 5.54214 20.4433 5.49814L20.733 5.42049C20.8972 5.37649 21.0498 5.39515 21.1906 5.47647C21.3315 5.55779 21.4239 5.68055 21.4679 5.84476C21.5119 6.00896 21.4932 6.16149 21.4119 6.30234C21.3306 6.44318 21.2078 6.5356 21.0436 6.5796L20.7538 6.65725C20.5896 6.70125 20.4371 6.68259 20.2963 6.60127C20.1554 6.51995 20.063 6.39719 20.019 6.23299ZM20.4849 7.97165C20.4409 7.80744 20.4595 7.65492 20.5408 7.51407C20.6222 7.37323 20.7449 7.2808 20.9091 7.2368L21.4887 7.08151C21.6529 7.03751 21.8054 7.05617 21.9463 7.13749C22.0871 7.21881 22.1795 7.34157 22.2235 7.50578C22.2675 7.66998 22.2489 7.82251 22.1676 7.96336C22.0862 8.1042 21.9635 8.19662 21.7993 8.24062L21.2197 8.39592C21.0555 8.43991 20.903 8.42126 20.7621 8.33994C20.6213 8.25862 20.5289 8.13586 20.4849 7.97165ZM20.4488 10.1554C20.3841 9.91391 20.4136 9.686 20.5374 9.47167C20.6611 9.25734 20.8437 9.11782 21.0852 9.05312L21.6648 8.89783C21.9063 8.83312 22.1342 8.86264 22.3485 8.98638C22.5628 9.11013 22.7023 9.29274 22.767 9.53422C22.8318 9.7757 22.8022 10.0036 22.6785 10.2179C22.5547 10.4323 22.3721 10.5718 22.1307 10.6365L21.5511 10.7918C21.3096 10.8565 21.0817 10.827 20.8674 10.7032C20.653 10.5795 20.5135 10.3969 20.4488 10.1554Z" fill="currentColor" /><path d="M9.42622 19.9981C9.38222 20.1623 9.40088 20.3148 9.4822 20.4557C9.56351 20.5965 9.68628 20.6889 9.85048 20.7329C10.0147 20.7769 10.1672 20.7583 10.3081 20.677C10.4489 20.5956 10.5413 20.4729 10.5853 20.3087C10.6293 20.1445 10.6107 19.9919 10.5294 19.8511C10.448 19.7103 10.3253 19.6178 10.1611 19.5738C9.99686 19.5298 9.84433 19.5485 9.70349 19.6298C9.56264 19.7111 9.47022 19.8339 9.42622 19.9981ZM2.01125 15.216C1.84043 15.8535 1.92119 16.4601 2.25353 17.0357C2.58587 17.6114 3.0708 17.9846 3.70831 18.1554L7.18564 19.0872C8.15157 19.346 9.06319 19.2279 9.92051 18.7329C10.7778 18.2379 11.3359 17.5075 11.5947 16.5416L11.8781 15.4839C12.0567 14.8174 11.9848 14.1873 11.6625 13.5937C11.3402 13 10.8506 12.6152 10.1938 12.4392C9.74944 12.3201 9.30963 12.3291 8.87434 12.4661C8.43904 12.6031 8.07045 12.8486 7.76856 13.2025C7.54085 13.4728 7.26058 13.6591 6.92775 13.7614C6.59492 13.8638 6.25947 13.8697 5.9214 13.7791L4.95064 13.519C4.30347 13.3456 3.69513 13.4232 3.12563 13.7521C2.55612 14.0809 2.18466 14.5688 2.01125 15.216ZM10.9736 18.8598C10.9296 19.024 10.9482 19.1765 11.0295 19.3174C11.1109 19.4582 11.2336 19.5506 11.3978 19.5946L11.6876 19.6723C11.8518 19.7163 12.0043 19.6976 12.1452 19.6163C12.286 19.535 12.3784 19.4122 12.4224 19.248C12.4664 19.0838 12.4478 18.9313 12.3665 18.7904C12.2852 18.6496 12.1624 18.5572 11.9982 18.5132L11.7084 18.4355C11.5442 18.3915 11.3917 18.4102 11.2508 18.4915C11.11 18.5728 11.0176 18.6956 10.9736 18.8598ZM12.019 17.2764C11.975 17.4406 11.9936 17.5931 12.075 17.734C12.1563 17.8748 12.279 17.9673 12.4433 18.0113L12.733 18.0889C12.8972 18.1329 13.0498 18.1142 13.1906 18.0329C13.3315 17.9516 13.4239 17.8289 13.4679 17.6646C13.5119 17.5004 13.4932 17.3479 13.4119 17.2071C13.3306 17.0662 13.2078 16.9738 13.0436 16.9298L12.7538 16.8522C12.5896 16.8082 12.4371 16.8268 12.2963 16.9081C12.1554 16.9894 12.063 17.1122 12.019 17.2764ZM12.4849 15.5377C12.4409 15.702 12.4595 15.8545 12.5408 15.9953C12.6222 16.1362 12.7449 16.2286 12.9091 16.2726L13.4887 16.4279C13.6529 16.4719 13.8054 16.4532 13.9463 16.3719C14.0871 16.2906 14.1795 16.1678 14.2235 16.0036C14.2675 15.8394 14.2489 15.6869 14.1676 15.546C14.0862 15.4052 13.9635 15.3128 13.7993 15.2688L13.2197 15.1135C13.0555 15.0695 12.903 15.0881 12.7621 15.1695C12.6213 15.2508 12.5289 15.3735 12.4849 15.5377ZM12.4488 13.354C12.3841 13.5955 12.4136 13.8234 12.5374 14.0377C12.6611 14.2521 12.8437 14.3916 13.0852 14.4563L13.6648 14.6116C13.9063 14.6763 14.1342 14.6468 14.3485 14.523C14.5628 14.3993 14.7023 14.2167 14.767 13.9752C14.8318 13.7337 14.8022 13.5058 14.6785 13.2915C14.5547 13.0771 14.3721 12.9376 14.1307 12.8729L13.5511 12.7176C13.3096 12.6529 13.0817 12.6824 12.8674 12.8062C12.653 12.9299 12.5135 13.1125 12.4488 13.354Z" fill="currentColor" /></svg>