<svg id="modeLight" viewBox="0 0 32 32" fill="none" xmlns="http://www.w3.org/2000/svg"><path d="M16.0002 20.6666C17.2891 20.6666 18.3891 20.211 19.3002 19.2999C20.2113 18.3888 20.6668 17.2888 20.6668 15.9999C20.6668 14.711 20.2113 13.611 19.3002 12.6999C18.3891 11.7888 17.2891 11.3333 16.0002 11.3333C14.7113 11.3333 13.6113 11.7888 12.7002 12.6999C11.7891 13.611 11.3335 14.711 11.3335 15.9999C11.3335 17.2888 11.7891 18.3888 12.7002 19.2999C13.6113 20.211 14.7113 20.6666 16.0002 20.6666ZM16.0002 22.6666C14.1557 22.6666 12.5835 22.0166 11.2835 20.7166C9.9835 19.4166 9.3335 17.8444 9.3335 15.9999C9.3335 14.1555 9.9835 12.5833 11.2835 11.2833C12.5835 9.98325 14.1557 9.33325 16.0002 9.33325C17.8446 9.33325 19.4168 9.98325 20.7168 11.2833C22.0168 12.5833 22.6668 14.1555 22.6668 15.9999C22.6668 17.8444 22.0168 19.4166 20.7168 20.7166C19.4168 22.0166 17.8446 22.6666 16.0002 22.6666ZM2.3335 16.9999C2.04461 16.9999 1.80572 16.9055 1.61683 16.7166C1.42794 16.5277 1.3335 16.2888 1.3335 15.9999C1.3335 15.711 1.42794 15.4721 1.61683 15.2833C1.80572 15.0944 2.04461 14.9999 2.3335 14.9999H5.66683C5.95572 14.9999 6.19461 15.0944 6.3835 15.2833C6.57239 15.4721 6.66683 15.711 6.66683 15.9999C6.66683 16.2888 6.57239 16.5277 6.3835 16.7166C6.19461 16.9055 5.95572 16.9999 5.66683 16.9999H2.3335ZM26.3335 16.9999C26.0446 16.9999 25.8057 16.9055 25.6168 16.7166C25.4279 16.5277 25.3335 16.2888 25.3335 15.9999C25.3335 15.711 25.4279 15.4721 25.6168 15.2833C25.8057 15.0944 26.0446 14.9999 26.3335 14.9999H29.6668C29.9557 14.9999 30.1946 15.0944 30.3835 15.2833C30.5724 15.4721 30.6668 15.711 30.6668 15.9999C30.6668 16.2888 30.5724 16.5277 30.3835 16.7166C30.1946 16.9055 29.9557 16.9999 29.6668 16.9999H26.3335ZM16.0002 6.66659C15.7113 6.66659 15.4724 6.57214 15.2835 6.38325C15.0946 6.19436 15.0002 5.95547 15.0002 5.66659V2.33325C15.0002 2.04436 15.0946 1.80547 15.2835 1.61659C15.4724 1.4277 15.7113 1.33325 16.0002 1.33325C16.2891 1.33325 16.5279 1.4277 16.7168 1.61659C16.9057 1.80547 17.0002 2.04436 17.0002 2.33325V5.66659C17.0002 5.95547 16.9057 6.19436 16.7168 6.38325C16.5279 6.57214 16.2891 6.66659 16.0002 6.66659ZM16.0002 30.6666C15.7113 30.6666 15.4724 30.5721 15.2835 30.3833C15.0946 30.1944 15.0002 29.9555 15.0002 29.6666V26.3333C15.0002 26.0444 15.0946 25.8055 15.2835 25.6166C15.4724 25.4277 15.7113 25.3333 16.0002 25.3333C16.2891 25.3333 16.5279 25.4277 16.7168 25.6166C16.9057 25.8055 17.0002 26.0444 17.0002 26.3333V29.6666C17.0002 29.9555 16.9057 30.1944 16.7168 30.3833C16.5279 30.5721 16.2891 30.6666 16.0002 30.6666ZM8.00016 9.39992L6.10016 7.53325C5.90016 7.33325 5.80572 7.09436 5.81683 6.81659C5.82794 6.53881 5.92238 6.29992 6.10016 6.09992C6.30016 5.89992 6.53905 5.79992 6.81683 5.79992C7.09461 5.79992 7.3335 5.89992 7.5335 6.09992L9.40016 7.99992C9.57794 8.19992 9.66683 8.43325 9.66683 8.69992C9.66683 8.96659 9.57794 9.18881 9.40016 9.36659C9.22239 9.56659 8.99461 9.66659 8.71683 9.66659C8.43905 9.66659 8.20016 9.5777 8.00016 9.39992ZM24.4668 25.8999L22.6002 23.9999C22.4224 23.7999 22.3335 23.561 22.3335 23.2833C22.3335 23.0055 22.4335 22.7777 22.6335 22.5999C22.8113 22.3999 23.0335 22.2999 23.3002 22.2999C23.5668 22.2999 23.8002 22.3999 24.0002 22.5999L25.9002 24.4666C26.1002 24.6666 26.1946 24.9055 26.1835 25.1833C26.1724 25.461 26.0779 25.6999 25.9002 25.8999C25.7002 26.0999 25.4613 26.1999 25.1835 26.1999C24.9057 26.1999 24.6668 26.0999 24.4668 25.8999V25.8999ZM22.6002 9.39992C22.4002 9.19992 22.3002 8.96659 22.3002 8.69992C22.3002 8.43325 22.4002 8.19992 22.6002 7.99992L24.4668 6.09992C24.6668 5.89992 24.9057 5.80547 25.1835 5.81659C25.4613 5.8277 25.7002 5.92214 25.9002 6.09992C26.1002 6.29992 26.2002 6.53881 26.2002 6.81659C26.2002 7.09436 26.1002 7.33325 25.9002 7.53325L24.0002 9.39992C23.8224 9.5777 23.5946 9.66659 23.3168 9.66659C23.0391 9.66659 22.8002 9.5777 22.6002 9.39992ZM6.10016 25.8999C5.90016 25.6999 5.80016 25.461 5.80016 25.1833C5.80016 24.9055 5.90016 24.6666 6.10016 24.4666L8.00016 22.5999C8.20016 22.3999 8.4335 22.2999 8.70016 22.2999C8.96683 22.2999 9.20016 22.3999 9.40016 22.5999C9.60016 22.7999 9.70016 23.0333 9.70016 23.2999C9.70016 23.5666 9.60016 23.7999 9.40016 23.9999L7.5335 25.8999C7.3335 26.0999 7.09461 26.1944 6.81683 26.1833C6.53905 26.1721 6.30016 26.0777 6.10016 25.8999V25.8999Z" fill="currentColor" /></svg>